<svg width="23" height="21" viewBox="0 0 23 21" fill="none" xmlns="http://www.w3.org/2000/svg">
<path d="M11.0879 0C17.2111 0.000240171 22.1748 4.96461 22.1748 11.0879V16.7539C22.1748 19.0672 20.2996 20.9433 17.9863 20.9434H4.18848C1.87524 20.9433 0 19.0672 0 16.7539V11.0879C0 4.96446 4.96446 0 11.0879 0ZM7.21484 8C6.02418 8 5.05859 8.96558 5.05859 10.1562C5.05879 11.3468 6.0243 12.3115 7.21484 12.3115C8.40523 12.3113 9.36992 11.3466 9.37012 10.1562C9.37012 8.9657 8.40535 8.00019 7.21484 8ZM13.9893 8C12.7986 8 11.833 8.96558 11.833 10.1562C11.8332 11.3468 12.7987 12.3115 13.9893 12.3115C15.1796 12.3113 16.1443 11.3466 16.1445 10.1562C16.1445 8.9657 15.1798 8.00019 13.9893 8Z" fill="#8F94AC"/>
</svg>
