<svg width="161" height="164" viewBox="0 0 161 164" fill="none" xmlns="http://www.w3.org/2000/svg">
<rect width="160.84" height="163.353" rx="50.2626" fill="#0000FF"/>
<path fill-rule="evenodd" clip-rule="evenodd" d="M72.0396 56.3165C70.114 57.1808 61.1634 65.241 49.9037 76.2518C37.8144 88.0723 31 95.3447 31 96.4262C31 97.3553 33.2119 100.305 35.9163 102.98C38.7085 105.743 41.59 107.844 42.5864 107.844C43.7202 107.844 50.2665 102.036 61.0877 91.432C73.7443 79.0283 78.3495 75.0205 79.9424 75.0205C81.5328 75.0205 86.1895 79.0536 98.8908 91.432C109.513 101.784 116.365 107.844 117.449 107.844C118.402 107.844 121.358 105.677 124.084 102.98C126.788 100.305 129 97.3662 129 96.4506C129 95.4002 121.931 87.8779 109.873 76.0961C97.4758 63.9845 89.6212 56.9536 87.5494 56.1154C85.7915 55.4042 82.3099 54.8319 79.8126 54.8437C77.3153 54.8563 73.8174 55.5187 72.0396 56.3165Z" fill="white"/>
</svg>
