<svg width="71" height="71" viewBox="0 0 71 71" fill="none" xmlns="http://www.w3.org/2000/svg">
<path d="M71 35.5C71 55.1061 55.1061 71 35.5 71C15.8939 71 0 55.1061 0 35.5C0 15.8939 15.8939 2.28882e-05 35.5 2.28882e-05C55.1061 2.28882e-05 71 15.8939 71 35.5ZM7.455 35.5C7.455 50.9888 20.0112 63.545 35.5 63.545C50.9888 63.545 63.545 50.9888 63.545 35.5C63.545 20.0112 50.9888 7.45502 35.5 7.45502C20.0112 7.45502 7.455 20.0112 7.455 35.5Z" fill="#3A171D"/>
<path d="M31.475 3.9835C31.2143 1.94144 32.6602 0.0539356 34.7184 0.00860439C40.3652 -0.115768 45.9795 1.10907 51.0863 3.60463C57.3134 6.64759 62.5135 11.4468 66.0452 17.4102C69.5769 23.3736 71.2858 30.2404 70.961 37.1635C70.6362 44.0867 68.292 50.7633 64.2175 56.3699C60.1431 61.9765 54.5165 66.2678 48.032 68.7145C41.5474 71.1611 34.4885 71.6561 27.726 70.1384C20.9635 68.6206 14.7931 65.1566 9.97606 60.1735C6.02554 56.0868 3.12695 51.125 1.50161 45.7158C0.909208 43.7442 2.25798 41.786 4.28077 41.4035V41.4035C6.30356 41.021 8.22976 42.3626 8.87696 44.3169C10.1961 48.3001 12.3978 51.9525 15.3361 54.992C19.1416 58.9287 24.0161 61.6653 29.3585 62.8643C34.7009 64.0633 40.2775 63.6723 45.4003 61.7394C50.523 59.8066 54.968 56.4165 58.1869 51.9873C61.4057 47.558 63.2576 42.2835 63.5142 36.8142C63.7708 31.3449 62.4208 25.9201 59.6307 21.2091C56.8406 16.498 52.7326 12.7066 47.8132 10.3027C44.0149 8.44653 39.8612 7.48022 35.6653 7.45549C33.6067 7.44336 31.7358 6.02555 31.475 3.9835V3.9835Z" fill="url(#paint0_linear_3171_1176)"/>
<path d="M61.2539 35.5C61.2539 49.7241 49.7231 61.2549 35.499 61.2549C21.275 61.2549 9.74414 49.7241 9.74414 35.5C9.74414 21.276 21.275 9.74512 35.499 9.74512C49.7231 9.74512 61.2539 21.276 61.2539 35.5ZM17.007 35.5C17.007 45.7129 25.2862 53.992 35.499 53.992C45.7119 53.992 53.9911 45.7129 53.9911 35.5C53.9911 25.2872 45.7119 17.008 35.499 17.008C25.2862 17.008 17.007 25.2872 17.007 35.5Z" fill="#1E3719"/>
<path d="M31.9773 13.6587C31.6581 11.6787 33.008 9.78752 35.0133 9.7497C38.4312 9.68523 41.8404 10.3017 45.0383 11.5769C49.365 13.3021 53.1429 16.1685 55.9696 19.8708C58.7963 23.5731 60.566 27.9727 61.0903 32.6011C61.6146 37.2296 60.8738 41.9136 58.9469 46.1543C57.0199 50.3951 53.979 54.0339 50.1478 56.6833C46.3166 59.3326 41.8386 60.8934 37.1906 61.1993C32.5426 61.5053 27.8987 60.5449 23.7533 58.4206C20.6894 56.8505 17.9827 54.688 15.7832 52.0711C14.4927 50.5357 15.0293 48.275 16.7307 47.2132V47.2132C18.4322 46.1513 20.6499 46.7018 22.0233 48.1633C23.4682 49.701 25.1719 50.9866 27.0656 51.957C30.042 53.4823 33.3763 54.1718 36.7136 53.9521C40.0508 53.7325 43.266 52.6118 46.0168 50.7096C48.7676 48.8074 50.951 46.1947 52.3346 43.1498C53.7181 40.1049 54.25 36.7418 53.8736 33.4186C53.4971 30.0954 52.2265 26.9365 50.1969 24.2783C48.1673 21.62 45.4548 19.5619 42.3482 18.3232C40.3717 17.5351 38.2828 17.0974 36.1742 17.0203C34.1699 16.9471 32.2966 15.6387 31.9773 13.6587V13.6587Z" fill="url(#paint1_linear_3171_1176)"/>
<path d="M51.5098 35.5C51.5098 44.342 44.342 51.5098 35.5 51.5098C26.6581 51.5098 19.4902 44.342 19.4902 35.5C19.4902 26.6581 26.6581 19.4902 35.5 19.4902C44.342 19.4902 51.5098 26.6581 51.5098 35.5ZM26.6081 35.5C26.6081 40.4109 30.5892 44.3919 35.5 44.3919C40.4109 44.3919 44.3919 40.4109 44.3919 35.5C44.3919 30.5892 40.4109 26.6081 35.5 26.6081C30.5892 26.6081 26.6081 30.5892 26.6081 35.5Z" fill="#163239"/>
<path d="M30.3074 46.8164C29.4877 48.6029 30.2723 50.7594 32.1956 51.1651C33.5387 51.4484 34.9175 51.5588 36.2983 51.4899C38.8695 51.3615 41.3718 50.615 43.5931 49.3137C45.8143 48.0123 47.689 46.1945 49.0581 44.0143C50.4272 41.8342 51.2503 39.3561 51.4578 36.79C51.6652 34.224 51.2508 31.6458 50.2497 29.2741C49.2485 26.9023 47.6902 24.807 45.7069 23.1657C43.7235 21.5245 41.3736 20.3857 38.8564 19.846C37.5046 19.5562 36.1259 19.4437 34.7547 19.5076C32.7913 19.5991 31.6704 21.6016 32.1926 23.4965V23.4965C32.7147 25.3914 34.7163 26.4273 36.6649 26.6847C36.899 26.7157 37.1323 26.756 37.3642 26.8057C38.7622 27.1055 40.0674 27.7379 41.1689 28.6495C42.2705 29.5611 43.136 30.7248 43.692 32.0421C44.2481 33.3594 44.4782 34.7913 44.363 36.2165C44.2478 37.6417 43.7906 39.018 43.0302 40.2289C42.2698 41.4398 41.2286 42.4494 39.9949 43.1722C38.7613 43.895 37.3715 44.3096 35.9434 44.3809C35.7066 44.3927 35.4698 44.395 35.2338 44.3879C33.2691 44.3291 31.1271 45.0299 30.3074 46.8164V46.8164Z" fill="url(#paint2_linear_3171_1176)"/>
<defs>
<linearGradient id="paint0_linear_3171_1176" x1="35.5" y1="2.68712e-05" x2="2.08824" y2="46.6373" gradientUnits="userSpaceOnUse">
<stop stop-color="#E20014"/>
<stop offset="1" stop-color="#FF338A"/>
</linearGradient>
<linearGradient id="paint1_linear_3171_1176" x1="35.499" y1="9.74513" x2="16.0088" y2="52.2059" gradientUnits="userSpaceOnUse">
<stop stop-color="#37DB00"/>
<stop offset="1" stop-color="#BCFF00"/>
</linearGradient>
<linearGradient id="paint2_linear_3171_1176" x1="35.5" y1="19.4902" x2="32.0196" y2="50.8137" gradientUnits="userSpaceOnUse">
<stop stop-color="#00BAE1"/>
<stop offset="1" stop-color="#00FFCF"/>
</linearGradient>
</defs>
</svg>
