<svg width="78" height="70" viewBox="0 0 78 70" fill="none" xmlns="http://www.w3.org/2000/svg">
<path d="M41.418 69.069C40.092 69.537 37.908 69.537 36.582 69.069C25.272 65.208 0 49.101 0 21.801C0 9.75 9.711 0 21.684 0C28.782 0 35.061 3.432 39 8.736C42.939 3.432 49.257 0 56.316 0C68.289 0 78 9.75 78 21.801C78 49.101 52.728 65.208 41.418 69.069Z" fill="#F7F1F4"/>
<path d="M32.3638 16.2389C33.5341 16.2389 34.5215 16.568 35.3261 17.2263C36.1489 17.8663 36.7706 18.8537 37.1912 20.1886C37.6118 21.5051 37.8221 23.1691 37.8221 25.1806V27.1006C37.8221 28.6731 37.8861 30.0537 38.0141 31.2423C38.1604 32.4309 38.3981 33.7109 38.7272 35.0823L35.3809 36.2343C35.0335 35.2103 34.7866 34.0674 34.6404 32.8057C34.4941 31.544 34.4209 30.0811 34.4209 28.4171C33.5432 28.5817 32.5649 28.664 31.4861 28.664C29.9135 28.664 28.7158 28.2891 27.8929 27.5394C27.0884 26.7897 26.6861 25.6926 26.6861 24.248C26.6861 22.8034 26.9329 21.4686 27.4266 20.2434C27.9204 19.0183 28.5969 18.0491 29.4564 17.336C30.3158 16.6046 31.2849 16.2389 32.3638 16.2389ZM32.0895 20.1337C31.6689 20.1337 31.2941 20.2709 30.9649 20.5451C30.6541 20.8011 30.4072 21.1577 30.2244 21.6149C30.0415 22.0537 29.9501 22.5291 29.9501 23.0411C29.9501 23.608 30.1055 24.0103 30.4164 24.248C30.7272 24.4857 31.2484 24.6046 31.9798 24.6046C33.2415 24.6046 34.0826 24.5497 34.5032 24.44C34.4849 23.416 34.3752 22.584 34.1741 21.944C33.9912 21.304 33.7261 20.8469 33.3786 20.5726C33.0312 20.28 32.6015 20.1337 32.0895 20.1337ZM51.0105 16.2389C51.2116 18.4514 51.3122 20.1977 51.3122 21.4777C51.3122 22.7211 51.1111 23.7909 50.7088 24.6869C50.3065 25.5829 49.7488 26.2686 49.0356 26.744C48.3225 27.2011 47.5088 27.4297 46.5945 27.4297C46.1008 27.4297 45.6802 27.3749 45.3328 27.2651C45.0036 27.1371 44.6928 26.9451 44.4002 26.6891C44.6928 29.0663 44.8391 32.2023 44.8391 36.0971H41.4379C41.4379 33.3543 41.3739 30.9954 41.2459 29.0206C41.1179 27.0457 40.8985 25.1531 40.5876 23.3429C40.2768 21.5326 39.8379 19.4846 39.2711 17.1989L42.5625 16.2389L43.5499 20.5177C43.7694 21.3954 44.0802 22.0537 44.4825 22.4926C44.8848 22.9314 45.4151 23.1509 46.0734 23.1509C46.6219 23.1509 47.0608 23.032 47.3899 22.7943C47.7191 22.5383 47.8836 22.2183 47.8836 21.8343C47.8836 20.6457 47.7556 18.9177 47.4996 16.6503L51.0105 16.2389Z" fill="#F70019"/>
<path d="M43.8557 50.5C43.2567 50.5 42.7622 50.4192 42.3724 50.2575C41.992 50.0959 41.7068 49.8534 41.5166 49.5301C41.374 49.7393 41.2171 49.9247 41.0459 50.0864C40.8748 50.2385 40.7036 50.3574 40.5325 50.4429C40.3613 50.5285 40.2044 50.5713 40.0618 50.5713C39.71 50.5713 39.3249 50.4715 38.9065 50.2718C38.4881 50.0721 38.1078 49.8154 37.7655 49.5016C37.5088 49.8439 37.2187 50.1101 36.8954 50.3003C36.5722 50.481 36.1871 50.5713 35.7402 50.5713C35.4264 50.5713 35.1506 50.519 34.9129 50.4144C34.6847 50.3003 34.4993 50.1482 34.3567 49.958C34.3757 50.1577 34.3852 50.3859 34.3852 50.6426C34.3662 51.3082 34.2711 51.855 34.0999 52.2829C33.9383 52.7203 33.7006 53.0483 33.3868 53.267C32.9779 53.5523 32.4407 53.7805 31.7751 53.9516C31.1095 54.1228 30.4344 54.2083 29.7498 54.2083C28.5897 54.2083 27.7054 53.9373 27.0969 53.3954C26.4978 52.8629 26.1983 52.0832 26.1983 51.0563C26.1983 50.4287 26.2934 49.7441 26.4836 49.0024C26.6737 48.2512 26.9542 47.3859 27.3251 46.4066L28.1808 46.7203C27.8861 47.5286 27.6531 48.275 27.482 48.9596C27.3108 49.6442 27.2252 50.2243 27.2252 50.6997C27.2252 51.4223 27.4487 51.9738 27.8956 52.3542C28.352 52.7345 29.0271 52.9247 29.9209 52.9247C30.5104 52.9247 31.119 52.8391 31.7466 52.668C32.3741 52.4968 32.8923 52.2876 33.3012 52.0404C33.3583 51.6981 33.3868 51.2987 33.3868 50.8423C33.3868 50.2813 33.3345 49.5872 33.2299 48.7599C33.1253 47.9327 32.9684 46.9771 32.7592 45.8931L33.8004 45.6506L34.1142 47.3764C34.2378 48.023 34.4232 48.5032 34.6704 48.817C34.9272 49.1308 35.2837 49.2877 35.7402 49.2877C36.1395 49.2877 36.4723 49.1736 36.7386 48.9453C37.0048 48.7076 37.2235 48.3273 37.3947 47.8043C37.5658 47.2813 37.6989 46.5682 37.794 45.6649L38.7639 45.7505C38.7354 46.2354 38.6736 46.7203 38.5785 47.2053C38.4929 47.6902 38.3883 48.0848 38.2647 48.3891C38.5024 48.6173 38.8019 48.8265 39.1632 49.0167C39.5246 49.1973 39.8336 49.2877 40.0903 49.2877C40.2044 49.2877 40.328 49.2306 40.4612 49.1165C40.6038 49.0024 40.7226 48.8598 40.8177 48.6886C40.9223 48.508 40.9746 48.332 40.9746 48.1609V45.0944H41.973V47.1768C41.973 47.6712 42.0396 48.0706 42.1727 48.3748C42.3058 48.6696 42.5103 48.8835 42.786 49.0167C43.0618 49.1498 43.4183 49.2163 43.8557 49.2163V50.5ZM37.9937 42.1562L37.1664 41.329L37.9937 40.5017L38.8209 41.329L37.9937 42.1562ZM39.0349 44.0675L38.1648 43.1974L39.0349 42.3274L39.9049 43.1974L39.0349 44.0675ZM36.9525 44.0675L36.0825 43.1974L36.9525 42.3274L37.8225 43.1974L36.9525 44.0675ZM48.6956 50.5C48.1156 50.5 47.6259 50.4192 47.2265 50.2575C46.8272 50.0864 46.5134 49.8106 46.2852 49.4303C45.9999 49.7821 45.6196 50.0483 45.1442 50.229C44.6687 50.4097 44.0507 50.5 43.29 50.5C43.1569 50.5 43.0523 50.4477 42.9762 50.3431C42.9001 50.229 42.8621 50.0721 42.8621 49.8724C42.8621 49.6728 42.9049 49.5159 42.9905 49.4018C43.0665 49.2781 43.1664 49.2163 43.29 49.2163C44.0507 49.2163 44.6402 49.1117 45.0586 48.9026C45.477 48.6934 45.786 48.3368 45.9857 47.8328C46.1949 47.3289 46.3518 46.6015 46.4564 45.6506L47.4405 45.7505C47.4025 46.2259 47.3359 46.7013 47.2408 47.1768C47.1457 47.6427 47.0364 48.0278 46.9128 48.332C47.0554 48.6173 47.2741 48.836 47.5689 48.9881C47.8636 49.1403 48.2392 49.2163 48.6956 49.2163V50.5ZM44.3312 55.5918L43.5039 54.7646L44.3312 53.9373L45.1584 54.7646L44.3312 55.5918ZM45.3724 53.7662L44.5023 52.8962L45.3724 52.0261L46.2424 52.8962L45.3724 53.7662ZM43.29 53.7662L42.42 52.8962L43.29 52.0261L44.16 52.8962L43.29 53.7662ZM51.5469 44.5096C51.6324 45.0516 51.6942 45.6269 51.7323 46.2354C51.7798 46.844 51.8036 47.3812 51.8036 47.8471C51.8036 48.275 51.7228 48.6744 51.5611 49.0452C51.3995 49.416 51.157 49.7108 50.8337 49.9295C50.577 50.1006 50.2204 50.2385 49.764 50.3431C49.3076 50.4477 48.7608 50.5 48.1238 50.5C47.9906 50.5 47.8861 50.4477 47.81 50.3431C47.7339 50.229 47.6959 50.0721 47.6959 49.8724C47.6959 49.6728 47.7387 49.5159 47.8242 49.4018C47.9003 49.2781 48.0002 49.2163 48.1238 49.2163C48.7323 49.2163 49.2648 49.1688 49.7212 49.0737C50.1776 48.9691 50.5247 48.8122 50.7624 48.603C50.7529 47.9945 50.7149 47.3289 50.6483 46.6062C50.5912 45.8741 50.5104 45.2608 50.4058 44.7663L51.5469 44.5096ZM51.0619 43.1974L50.1919 42.3274L51.0619 41.4573L51.932 42.3274L51.0619 43.1974ZM48.9795 43.1974L48.1095 42.3274L48.9795 41.4573L49.8496 42.3274L48.9795 43.1974Z" fill="#F70019"/>
</svg>
