<svg width="58" height="53" viewBox="0 0 58 53" fill="none" xmlns="http://www.w3.org/2000/svg">
<path d="M11.7034 31.2436C12.2369 30.3198 12.8289 29.0448 13.4794 27.4184C14.13 25.792 14.7024 24.1461 15.1969 22.4807C15.7043 20.8023 16.0231 19.4231 16.1532 18.3432H18.2219C18.365 19.4231 18.6838 20.8023 19.1782 22.4807C19.6856 24.1461 20.2646 25.792 20.9152 27.4184C21.5657 29.0448 22.1512 30.3198 22.6717 31.2436L20.3492 32.5707C19.9849 31.9462 19.5816 31.0875 19.1392 29.9946C18.7098 28.8886 18.313 27.6656 17.9487 26.3255C17.5844 24.9853 17.3307 23.6712 17.1875 22.3831C17.0444 23.6842 16.7907 25.0048 16.4264 26.345C16.0621 27.6851 15.6587 28.9081 15.2164 30.0141C14.774 31.107 14.3642 31.9592 13.9868 32.5707L11.7034 31.2436ZM25.3499 18.3432C26.1826 18.3432 26.8851 18.5774 27.4576 19.0458C28.0431 19.5012 28.4855 20.2038 28.7848 21.1536C29.084 22.0904 29.2336 23.2744 29.2336 24.7056V26.0717C29.2336 27.1907 29.2792 28.173 29.3702 29.0187C29.4743 29.8644 29.6435 30.7752 29.8777 31.751L27.4967 32.5707C27.2495 31.8421 27.0738 31.0289 26.9697 30.1312C26.8656 29.2334 26.8136 28.1925 26.8136 27.0085C26.1891 27.1256 25.493 27.1842 24.7253 27.1842C23.6064 27.1842 22.7542 26.9175 22.1687 26.384C21.5962 25.8506 21.3099 25.0699 21.3099 24.042C21.3099 23.0142 21.4856 22.0644 21.8369 21.1926C22.1882 20.3209 22.6696 19.6313 23.2811 19.1239C23.8926 18.6034 24.5822 18.3432 25.3499 18.3432ZM25.1547 21.1146C24.8554 21.1146 24.5887 21.2121 24.3545 21.4073C24.1333 21.5895 23.9577 21.8432 23.8276 22.1684C23.6975 22.4807 23.6324 22.819 23.6324 23.1833C23.6324 23.5866 23.743 23.8729 23.9642 24.042C24.1854 24.2112 24.5562 24.2957 25.0766 24.2957C25.9744 24.2957 26.5729 24.2567 26.8721 24.1786C26.8591 23.45 26.7811 22.858 26.6379 22.4026C26.5078 21.9473 26.3192 21.622 26.072 21.4268C25.8248 21.2186 25.519 21.1146 25.1547 21.1146ZM32.6066 18.3432C33.036 19.9826 33.3613 21.4724 33.5825 22.8125C33.8166 24.1396 33.9793 25.5513 34.0704 27.0476C34.1745 28.5438 34.2265 30.3524 34.2265 32.4731H31.8065C31.8065 30.5215 31.7609 28.8431 31.6698 27.4379C31.5788 26.0327 31.4226 24.6861 31.2014 23.398C30.9803 22.1099 30.668 20.6527 30.2646 19.0263L32.6066 18.3432ZM40.9545 26.2279C40.7593 26.2279 40.5447 26.3059 40.3105 26.4621C40.0763 26.6182 39.8811 26.8134 39.725 27.0476C39.5688 27.2688 39.4908 27.4769 39.4908 27.6721C39.4908 27.8673 39.5688 28.0819 39.725 28.3161C39.8811 28.5373 40.0763 28.726 40.3105 28.8821C40.5447 29.0382 40.7593 29.1163 40.9545 29.1163C41.1497 29.1163 41.3643 29.0382 41.5985 28.8821C41.8327 28.726 42.0279 28.5373 42.184 28.3161C42.3532 28.0819 42.4378 27.8673 42.4378 27.6721C42.4378 27.4769 42.3532 27.2688 42.184 27.0476C42.0279 26.8134 41.8327 26.6182 41.5985 26.4621C41.3643 26.3059 41.1497 26.2279 40.9545 26.2279ZM40.9545 23.7688C41.54 23.7688 42.132 23.9705 42.7305 24.3738C43.342 24.7641 43.8429 25.2651 44.2333 25.8766C44.6236 26.4751 44.8188 27.0736 44.8188 27.6721C44.8188 28.2706 44.6236 28.8756 44.2333 29.4871C43.8429 30.0986 43.342 30.6061 42.7305 31.0094C42.132 31.3997 41.54 31.5949 40.9545 31.5949C40.369 31.5949 39.7705 31.3997 39.159 31.0094C38.5605 30.6061 38.0661 30.0986 37.6757 29.4871C37.2854 28.8756 37.0902 28.2706 37.0902 27.6721C37.0902 27.0736 37.2854 26.4751 37.6757 25.8766C38.0661 25.2651 38.5605 24.7641 39.159 24.3738C39.7705 23.9705 40.369 23.7688 40.9545 23.7688Z" fill="white"/>
<path d="M22.6456 43.0317C22.3445 43.0317 22.0513 43.2021 21.7661 43.5428C21.4888 43.8835 21.2233 44.3985 20.9697 45.0879C21.0728 45.1196 21.1916 45.1592 21.3263 45.2068C21.461 45.2464 21.5997 45.29 21.7423 45.3375C22.1544 45.4643 22.5347 45.5673 22.8833 45.6465C23.232 45.7258 23.5172 45.7654 23.7391 45.7654C23.8104 45.5911 23.8619 45.4286 23.8936 45.2781C23.9253 45.1196 23.9412 44.9532 23.9412 44.7789C23.9412 44.2638 23.8223 43.8439 23.5846 43.519C23.3469 43.1941 23.0339 43.0317 22.6456 43.0317ZM22.7883 42.0571C23.1528 42.0571 23.4816 42.164 23.7748 42.378C24.0759 42.5919 24.3096 42.893 24.476 43.2813C24.6424 43.6616 24.7256 44.1014 24.7256 44.6006C24.7256 45.0206 24.6702 45.4009 24.5592 45.7416C24.4562 46.0744 24.3096 46.3359 24.1195 46.5261C23.9372 46.7163 23.7312 46.8113 23.5014 46.8113C23.3508 46.8113 23.1052 46.7678 22.7645 46.6806C22.4317 46.5934 22.0791 46.4984 21.7067 46.3953C21.3739 46.2923 21.0529 46.2012 20.7439 46.122C20.4349 46.0348 20.213 45.9793 20.0783 45.9556C19.9436 46.1933 19.8763 46.6608 19.8763 47.3581C19.8763 47.7226 19.8842 48.1822 19.9 48.7368C19.9238 49.2915 19.9595 49.8699 20.007 50.4721L19.1631 50.5435C19.076 49.3707 19.0324 48.3644 19.0324 47.5245C19.0324 46.8827 19.076 46.3755 19.1631 46.0031C19.2582 45.6307 19.3889 45.3653 19.5553 45.2068C19.7297 45.0404 19.9555 44.9453 20.2328 44.9215C20.5498 44.0578 20.9222 43.3645 21.3501 42.8415C21.778 42.3185 22.2574 42.0571 22.7883 42.0571ZM31.9355 46.6925C31.5552 46.6925 31.2422 46.6608 30.9965 46.5974C30.7588 46.534 30.5568 46.4231 30.3904 46.2646C30.224 46.0982 30.0774 45.8645 29.9506 45.5633L29.6653 46.1101C29.3722 46.3082 29.0196 46.4746 28.6075 46.6093C28.1955 46.744 27.8072 46.8113 27.4427 46.8113C27.0782 46.8113 26.785 46.748 26.5632 46.6212C26.3492 46.4944 26.1908 46.3003 26.0877 46.0388C25.9927 45.7694 25.9451 45.4088 25.9451 44.9572V44.1371H26.6583V44.7432C26.6583 45.0998 26.7256 45.3573 26.8603 45.5158C26.995 45.6664 27.2169 45.7416 27.5259 45.7416C27.8666 45.7416 28.243 45.6703 28.6551 45.5277C29.0671 45.3851 29.4197 45.1949 29.7129 44.9572L28.7264 41.2013L29.594 40.9041L30.3904 44.2084C30.4934 44.6125 30.6004 44.9136 30.7113 45.1117C30.8301 45.3098 30.9807 45.4445 31.1629 45.5158C31.3452 45.5871 31.6027 45.6228 31.9355 45.6228V46.6925ZM34.71 40.2385C35.13 40.2385 35.5103 40.3693 35.851 40.6308C36.1917 40.8923 36.4612 41.2964 36.6593 41.8431C36.8653 42.3819 36.9683 43.0555 36.9683 43.8637C36.9683 44.3153 36.9326 44.6997 36.8613 45.0166C36.79 45.3336 36.683 45.5871 36.5404 45.7773C36.3978 45.9675 36.2234 46.1101 36.0174 46.2052C35.5895 46.3795 35.0309 46.5063 34.3415 46.5855C33.6522 46.6568 32.6934 46.6925 31.4652 46.6925C31.3543 46.6925 31.2671 46.6489 31.2037 46.5617C31.1403 46.4746 31.1086 46.3478 31.1086 46.1814C31.1086 46.015 31.1443 45.8843 31.2156 45.7892C31.279 45.6862 31.3622 45.6347 31.4652 45.6347C32.63 45.6347 33.569 45.6069 34.2821 45.5515C35.0032 45.4881 35.6054 45.3653 36.0887 45.183C36.1363 44.9532 36.1601 44.6442 36.1601 44.2559C36.1601 43.2654 36.0214 42.5048 35.7441 41.9739C35.4746 41.443 35.1062 41.1775 34.6387 41.1775C34.4168 41.1775 34.2148 41.2488 34.0325 41.3915C33.8503 41.5341 33.7076 41.7203 33.6046 41.9501C33.5095 42.1799 33.462 42.4255 33.462 42.687C33.4699 42.8613 33.5056 43.004 33.569 43.1149C33.6324 43.2179 33.7433 43.2971 33.9018 43.3526C34.0682 43.4001 34.3019 43.4239 34.603 43.4239C34.8328 43.4239 35.1062 43.4041 35.4231 43.3645C35.7401 43.3249 36.0253 43.2773 36.2789 43.2219L36.3383 44.1133C35.9818 44.2005 35.6529 44.2678 35.3518 44.3153C35.0586 44.355 34.7417 44.3748 34.401 44.3748C33.8067 44.3748 33.3709 44.252 33.0935 44.0063C32.8241 43.7528 32.6894 43.3566 32.6894 42.8177C32.6894 42.3978 32.7805 41.9897 32.9628 41.5935C33.145 41.1894 33.3907 40.8645 33.6997 40.6189C34.0167 40.3653 34.3534 40.2385 34.71 40.2385ZM35.5182 39.2283L34.7932 38.5032L35.5182 37.7782L36.2433 38.5032L35.5182 39.2283ZM33.7829 39.2283L33.0579 38.5032L33.7829 37.7782L34.5079 38.5032L33.7829 39.2283Z" fill="white"/>
<path d="M28.6963 0.00159054C32.4938 -0.038178 36.2492 0.668288 39.7529 2.06702C38.9944 2.48059 38.3366 3.10195 37.873 3.90491C37.2036 5.06446 37.0657 6.38517 37.3838 7.5846C34.646 6.51255 31.7189 5.96961 28.7588 6.00061C24.7015 6.04321 20.7273 7.15846 17.2402 9.23304C13.7531 11.3077 10.8767 14.2687 8.90331 17.8141C6.93007 21.3595 5.92954 25.3646 6.00389 29.4215C6.0784 33.4783 7.22427 37.4441 9.32616 40.9147C10.1842 42.3318 9.73153 44.1766 8.31444 45.0348C6.89739 45.8925 5.05255 45.4389 4.19432 44.0221C1.54412 39.646 0.0986994 34.6461 0.00486762 29.5309C-0.0888511 24.4158 1.17222 19.3664 3.66014 14.8961C6.14832 10.4258 9.77601 6.69271 14.1728 4.07679C18.5697 1.461 23.5804 0.05521 28.6963 0.00159054Z" fill="white"/>
<path d="M46.9502 6.22327C49.7916 8.46287 52.1996 11.2227 54.0381 14.3688C56.6192 18.786 57.9865 23.8074 58 28.9235C58.0133 34.0396 56.6723 39.0689 54.1142 43.4996C53.2856 44.934 51.4512 45.4256 50.0166 44.5973C48.582 43.7689 48.0909 41.9344 48.9189 40.4996C50.9477 36.9857 52.0105 32.9966 52 28.9391C51.9893 24.8816 50.9055 20.8984 48.8584 17.3951C47.4265 14.9448 45.5577 12.7914 43.3564 11.0328C44.5547 10.7088 45.6301 9.93007 46.2998 8.77015C46.7634 7.96715 46.9713 7.087 46.9502 6.22327Z" fill="white"/>
<circle cx="2.835" cy="2.835" r="2.835" transform="matrix(0.5 -0.866025 -0.866025 -0.5 43.125 10.2101)" fill="white" style="mix-blend-mode:plus-lighter"/>
</svg>
